<svg id="Layer_1" data-name="Layer 1" xmlns="http://www.w3.org/2000/svg" width="121" height="72" viewBox="0 0 121 72">
  <defs>
    <style>
      .cls-1 {
        fill-rule: evenodd;
      }
    </style>
  </defs>
  <title>btn</title>
  <path class="cls-1" d="M61.33,54.3s21.42-1.8,52.8-1.8,52.54,1.8,52.54,1.8a6,6,0,0,1,6,6,245.05,245.05,0,0,1,1.81,27.79,262.78,262.78,0,0,1-1.81,28.61,6,6,0,0,1-6,6S146,124.5,115,124.5c-31.66,0-53.67-1.8-53.67-1.8a6,6,0,0,1-6-6A256.1,256.1,0,0,1,53.5,88.4a251.58,251.58,0,0,1,1.81-28.1A6,6,0,0,1,61.33,54.3Z" transform="translate(-53.5 -52.5)"/>
</svg>
